# xmcd
#
# Track frame offsets:
#	150
#	17535
#	34880
#	51633
#	63695
#
# Disc length: 1054 seconds
# Revision: 1
# Processed by: cddbd v1.5.2PL0 Copyright (c) Steve Scherf et al.
# Submitted via: dBpowerAMP V12.0
#
DISCID=44041c05
DTITLE=Blake Shelton - Collector's Edition
DYEAR=2008
DGENRE=Country
TTITLE0=Home
TTITLE1=Austin
TTITLE2=Ol' Red
TTITLE3=Nobody But Me
TTITLE4=Some Beach
EXTD=
EXTT0=
EXTT1=
EXTT2=
EXTT3=
EXTT4=
PLAYORDER=
